# xmcd
#
# Track frame offsets:
#	150
#	19420
#	34619
#	50522
#	64772
#	77615
#	96067
#	113160
#	126381
#	139021
#	153003
#	161170
#	184934
#	202115
#	211815
#
# Disc length: 3055 seconds
#
# Revision: 0
# Processed by: cddbd v1.5.1PL0 Copyright (c) Steve Scherf et al.
# Submitted via: dBpowerAMP V4.0
#
DISCID=ce0bed0f
DTITLE=Various Artist - I Am a Cold Rock. I Am Dull Grass: A Tribute to the Music of Will Oldham - Disc 1
DYEAR=2004
DGENRE=Country
TTITLE0=Moyra McBride and Maxon Blewitt - Disorder
TTITLE1=The Strugglers - Riding
TTITLE2=Calexico - I Send My Love to You
TTITLE3=Boy Omega - A Sucker's Evening
TTITLE4=Pink Nasty - May It Always Be
TTITLE5=Pinetop Seven - A Minor Place
TTITLE6=Adrian Crowley - West Palm Beach
TTITLE7=Sodastream - Southside of the World
TTITLE8=Pale Horse and Rider - Work Hard/Play Hard
TTITLE9=Iron and Wine - We All, Us Three, Will Ride
TTITLE10=The Impossible Shapes - Rider
TTITLE11=Rivulets - You Will Miss Me When I Burn
TTITLE12=Sorry About Dresden - All Gone, All Gone
TTITLE13=Racingpaperplanes - Careless Love
TTITLE14=Scout Niblett - Trudy Dies
EXTD=
EXTT0=
EXTT1=
EXTT2=
EXTT3=
EXTT4=
EXTT5=
EXTT6=
EXTT7=
EXTT8=
EXTT9=
EXTT10=
EXTT11=
EXTT12=
EXTT13=
EXTT14=
PLAYORDER=
